<?xml version="1.0" encoding="UTF-8"?>
<!-- Generator: Blender, SVG Export for Grease Pencil - v1.0 -->
<!DOCTYPE svg PUBLIC "-//W3C//DTD SVG 1.1//EN" "http://www.w3.org/Graphics/SVG/1.1/DTD/svg11.dtd">
<svg version="1.0" x="0px" y="0px" xmlns="http://www.w3.org/2000/svg" width="1150px" height="1150px" viewBox="0 0 1150 1150">
	<g id="blender_frame_1">
		<g id="blender_object_BoneAttachment3D.svg">
			<!--Layer: Layer_001-->
			<g id="Layer_001">
				<polygon fill="#FB7E7E" stroke="none" fill-opacity="1" points="320.379303,607.442322 270.884125,582.677002 219.513763,573.030579 167.602203,577.044861 117.954010,594.685181 73.844727,625.510986 40.213562,666.070496 18.600281,713.439087 10.000000,764.991943 15.408173,818.104614 34.730103,867.872437 65.821228,909.884644 106.601990,942.255005 154.992859,963.098267 186.901978,995.007568 207.745239,1043.398315 240.115692,1084.178955 282.127686,1115.270264 331.895721,1134.592163 385.008209,1140.000366 436.561188,1131.400024 483.929840,1109.786499 524.489258,1076.155518 555.315186,1032.046265 572.955322,982.397827 576.969727,930.486694 567.325684,879.118774 545.471069,832.534058 588.439575,812.475464 630.545044,786.547852 659.591797,754.552979 679.041138,710.103760 692.504883,659.780273 712.861938,616.429077 743.762817,583.984192 783.806396,561.418213 829.471436,542.312439 879.118530,567.325256 930.486694,576.969666 982.397949,572.955200 1032.046143,555.315002 1076.155518,524.489136 1109.786499,483.929565 1131.400146,436.561035 1140.000244,385.008179 1134.592285,331.895630 1115.270386,282.127686 1084.179321,240.115601 1043.398438,207.745117 995.007690,186.901733 963.098389,154.992554 942.255005,106.601685 909.884521,65.821167 867.872437,34.729980 818.104614,15.408081 764.992065,10.000000 713.439209,18.600098 666.070557,40.213623 625.511108,73.844727 594.685303,117.953979 577.044922,167.602051 573.030518,219.513550 582.674438,270.881104 604.379639,317.220825 562.379883,336.856934 523.107910,363.039917 487.770172,391.337402 465.156403,434.572998 456.148468,485.243469 440.190887,529.847168 410.179291,564.253235 366.482452,590.855957 320.379303,607.442322" />
			</g>
		</g>
	</g>
</svg>
